<svg width="24" height="24" viewBox="0 0 24 24" fill="none" xmlns="http://www.w3.org/2000/svg">
<path fill-rule="evenodd" clip-rule="evenodd" d="M5.6543 3.18723C5.31299 2.84592 4.84916 2.54432 4.52419 2.34934C4.35171 2.24586 4.19716 2.16001 4.08535 2.0998C4.02922 2.06958 3.98329 2.04551 3.95056 2.02858L3.91159 2.00859L3.90014 2.00279L3.89459 2C3.89459 2 3.8944 1.99991 3.44718 2.89433L3 3.78878L3.00549 3.79156L3.03171 3.80501C3.05562 3.81738 3.09171 3.83628 3.13715 3.86074C3.22846 3.90991 3.35516 3.98031 3.49519 4.06433C3.78664 4.23919 4.065 4.43141 4.22615 4.58772L4.22722 4.58964C4.23394 4.60168 4.25757 4.644 4.28757 4.734C4.33213 4.86769 4.36828 5.03803 4.39474 5.22325C4.42063 5.40447 4.43402 5.57659 4.44076 5.7047C4.44409 5.768 4.44571 5.8187 4.44648 5.85215L4.44713 5.88835L4.44719 5.89556V13.6443C4.44719 14.4908 5.00288 15.0664 5.43623 15.3698C5.87111 15.6742 6.44252 15.8943 6.94719 15.8943H20.4472V13.8943L6.95385 13.8942C6.95385 13.8942 6.91391 13.8897 6.83821 13.8627C6.75335 13.8324 6.662 13.7865 6.58315 13.7313C6.50812 13.6788 6.46616 13.6332 6.44719 13.6069V13.3277L18.516 12.4954C19.1781 12.4497 19.8164 12.2393 20.3062 11.7595C20.7958 11.2797 21.0194 10.6458 21.0795 9.98487L21.5423 4.89433H6.36789C6.33152 4.65222 6.27521 4.37237 6.18494 4.10154C6.09461 3.83057 5.93951 3.47244 5.6543 3.18723ZM6.44719 6.89433H19.3522L19.0877 9.8038C19.0569 10.1428 18.9623 10.2762 18.9064 10.3309C18.8507 10.3855 18.7164 10.4768 18.3784 10.5002L6.44719 11.323V6.89433ZM6.94718 18.8943C6.67104 18.8943 6.44718 19.1182 6.44718 19.3943C6.44718 19.6704 6.67104 19.8943 6.94718 19.8943C7.22332 19.8943 7.44718 19.6704 7.44718 19.3943C7.44718 19.1182 7.22332 18.8943 6.94718 18.8943ZM4.44718 19.3943C4.44718 18.0136 5.56647 16.8943 6.94718 16.8943C8.32789 16.8943 9.44718 18.0136 9.44718 19.3943C9.44718 20.775 8.32789 21.8943 6.94718 21.8943C5.56647 21.8943 4.44718 20.775 4.44718 19.3943ZM17.9472 18.8943C17.6711 18.8943 17.4472 19.1182 17.4472 19.3943C17.4472 19.6704 17.6711 19.8943 17.9472 19.8943C18.2234 19.8943 18.4472 19.6704 18.4472 19.3943C18.4472 19.1182 18.2234 18.8943 17.9472 18.8943ZM15.4472 19.3943C15.4472 18.0136 16.5665 16.8943 17.9472 16.8943C19.3279 16.8943 20.4472 18.0136 20.4472 19.3943C20.4472 20.775 19.3279 21.8943 17.9472 21.8943C16.5665 21.8943 15.4472 20.775 15.4472 19.3943Z" fill="#111111"/>
</svg>
